<?xml version="1.0" encoding="utf-8"?>
<!-- Generator: Adobe Illustrator 26.5.0, SVG Export Plug-In . SVG Version: 6.00 Build 0)  -->
<svg version="1.1" id="Layer_1" xmlns="http://www.w3.org/2000/svg" xmlns:xlink="http://www.w3.org/1999/xlink" x="0px" y="0px"
	 viewBox="0 0 130.3 36.8" style="enable-background:new 0 0 130.3 36.8;" xml:space="preserve">
<style type="text/css">
	.st0{fill:#679941;}
	.st1{fill:#FFFFFF;}
	.st2{fill:#3A3636;}
	.st3{fill:#242322;}
	.st4{fill:#689A42;}
</style>
<path class="st0" d="M3.3,36.8c-1.8,0-3.4-1.4-3.4-3.4c0-5.5,0-11.1,0-16.6c0-1.7,1.1-3.1,2.7-3.3c0.2,0,0.3,0,0.5,0
	c3.4,0,6.9,0,10.3,0c0.3,0,0.5-0.2,0.5-0.5c0-2.5,0-4.9,0.1-7.4c0-0.2-0.1-0.4-0.3-0.5c-1-0.6-1.4-1.5-1.3-2.6
	c0.1-1,0.6-1.8,1.6-2.2c1.2-0.6,2.8-0.2,3.6,1.2c0.7,1.3,0.3,2.9-0.9,3.7c-0.3,0.2-0.4,0.3-0.4,0.7c0,2.4,0,4.8,0,7.2
	c0,0.5,0,0.5,0.5,0.5c3.6,0,7.2,0,10.8,0c1.7,0,3.1,1.4,3.1,3.1c0,5.7,0,11.3,0,17c0,1.6-1.4,3.1-3.2,3.1
	C23.7,36.8,7.3,36.8,3.3,36.8z"/>
<path class="st1" d="M8.7,30.6c3,0,5.4-2.5,5.4-5.5s-2.5-5.6-5.4-5.5c-3,0-5.4,2.5-5.4,5.5C3.3,28.1,5.7,30.6,8.7,30.6L8.7,30.6z"/>
<path class="st1" d="M27.2,25.1c0-0.3-0.1-0.7-0.1-1c-0.1-0.4-0.2-0.7-0.3-1.1c-0.9-2.4-3.5-3.8-6-3.3c-3.1,0.7-5,3.8-4.2,6.9
	c0.8,2.8,3.6,4.5,6.3,3.9C25.4,29.9,27.2,27.7,27.2,25.1L27.2,25.1z"/>
<path class="st2" d="M12.3,25.1c0,2-1.6,3.7-3.6,3.7s-3.6-1.6-3.6-3.7c0-2,1.6-3.7,3.6-3.7S12.3,23.1,12.3,25.1z"/>
<path class="st2" d="M25.4,25.1c0,2-1.6,3.7-3.6,3.7s-3.6-1.6-3.6-3.7c0-2,1.6-3.7,3.6-3.7S25.4,23.1,25.4,25.1z"/>
<g>
	<g>
		<path class="st3" d="M47.9,24.5v-4.4h-6.6v4.4h-0.4c-0.9,0-1.7,0-2.6,0c-0.3,0-0.4-0.1-0.4-0.4c0-4.6,0-14.3,0-14.5
			c0.1-1.1,0.8-1.7,1.8-1.8c0.2,0,6.2,0,9,0c1.7,0,2.4,0.7,2.4,2.4c0,4.6,0,9.2,0,13.8v0.5H47.9z M47.8,16.8v-5.5h-6.6
			c0,0.1,0,0.2,0,0.3c0,1.6,0,3.2,0,4.9c0,0.3,0.1,0.3,0.4,0.3c2,0,4,0,5.9,0C47.6,16.8,47.7,16.8,47.8,16.8z"/>
		<path class="st3" d="M83.1,8v3.3h-9.9v9.9h6.6v-3.3h-4.4c0-0.1,0.1-0.2,0.1-0.3c0.3-0.9,0.6-1.8,0.9-2.7c0.1-0.2,0.2-0.3,0.4-0.3
			c1.4,0,2.7,0,4.1,0c0.2,0,0.5,0,0.7,0.1c0.9,0.2,1.5,0.8,1.5,1.7c0,0.6,0,1.2,0,1.7c0,1.4,0,2.7,0,4.1c0,0.2,0,0.4,0,0.6
			c-0.1,1-0.7,1.6-1.7,1.7c-0.2,0-0.5,0-0.7,0c-2.8,0-5.7,0-8.5,0c-0.2,0-0.5,0-0.7,0c-1-0.1-1.6-0.8-1.7-1.8c0-0.2,0-0.3,0-0.5
			c0-4,0-8.1,0-12.1c0-0.2,0,0,0-0.7c0.1-0.7,0.7-1.3,1.6-1.4c0.2,0,0.4,0,0.6,0c3.6,0,7.1,0,10.7,0C82.8,8,82.9,8,83.1,8L83.1,8z"
			/>
		<path class="st3" d="M115,7.9c-0.3,0.9-0.6,1.8-0.9,2.6c-0.2,0.7-0.2,0.7-1,0.7c-2.6,0-5.1,0-7.7,0c-0.1,0-0.3,0-0.4,0v3.3
			c0.1,0,0.3,0,0.4,0c2.4,0,4.7,0,7.1,0c0.2,0,0.3,0,0.5,0c1.2,0.1,2,0.7,2,2c0,2,0,4,0,6c0,1.2-0.7,1.9-1.9,2c-0.1,0-0.3,0-0.4,0
			c-3.5,0-7,0-10.5,0c-0.1,0-0.3,0-0.4,0v-3.3h9.9v-3.3h-0.4c-2.3,0-4.7,0-7,0c-0.1,0-0.2,0-0.3,0c-1.5,0-2.2-0.7-2.2-2.2
			c0-1.8,0-3.7,0-5.6c0-0.2,0,0,0-0.7c0.2-0.9,0.9-1.4,1.8-1.5c0.2,0,0.3,0,0.5,0c3.5,0,7.1,0,10.6,0C114.7,7.9,114.8,7.9,115,7.9
			L115,7.9z"/>
		<path class="st3" d="M89,7.9v13.3h6.6V7.9H99c0,0.1,0,0.2,0,0.3c0,4.7,0,9.3,0,14c0,0.2,0,0.4-0.1,0.6c-0.1,0.9-0.7,1.5-1.6,1.6
			c-0.3,0-0.5,0.1-0.8,0.1c-2.8,0-5.7,0-8.5,0c-0.1,0-0.2,0-0.3,0c-1.4-0.1-2.1-0.8-2.1-2.1c0-3,0-5.9,0-8.9c0-1.7,0-5.6,0-5.6
			S89,7.9,89,7.9z"/>
		<path class="st3" d="M63.8,7.9h3.3c0,0.1,0,0.2,0,0.4c0,4.6,0,9.3,0,13.9c0,0.2,0,0.4,0,0.6c-0.1,1-0.7,1.6-1.6,1.7
			c-0.2,0-0.5,0-0.7,0c-2.8,0-5.7,0-8.5,0c-1.7,0-2.4-0.7-2.4-2.4c0-4.6,0-9.2,0-13.8c0-0.1,0-0.3,0-0.4h3.3v13.2h6.6V7.9L63.8,7.9z
			"/>
		<path class="st3" d="M129.8,7.9v3.3h-4.4v13.3h-3.3V11.2h-4.4V7.9H129.8L129.8,7.9z"/>
	</g>
	<g>
		<path class="st4" d="M70.1,32.7c1.2,0.7,1,2.6-0.2,3.2c-0.4,0.2-0.9,0.4-1.4,0.4c-1.3,0-2.6,0-4,0c-0.2,0-0.3-0.1-0.3-0.3
			c0-2.1,0-4.2,0-6.3c0-0.2,0.1-0.3,0.3-0.3c1.2,0,2.4,0,3.6,0c0.5,0,1,0.1,1.4,0.4c1.1,0.6,1.3,1.8,0.6,2.8
			C70.1,32.6,70.1,32.7,70.1,32.7L70.1,32.7z M66,34.7c0.8,0,1.6,0,2.3,0c0.1,0,0.2,0,0.3-0.1c0.2-0.1,0.3-0.2,0.3-0.5
			c0-0.3-0.1-0.4-0.3-0.5c-0.2-0.1-0.3-0.1-0.5-0.1c-0.7,0-1.4,0-2,0V34.7z M66,32.1c0.7,0,1.3,0,1.9,0c0.2,0,0.3,0,0.5-0.1
			c0.2-0.1,0.2-0.2,0.2-0.4c0-0.2-0.1-0.3-0.3-0.4c-0.1,0-0.2-0.1-0.3-0.1c-0.7,0-1.4,0-2.1,0C66,31.6,66,31.6,66,32.1L66,32.1z"/>
		<path class="st4" d="M42.9,33.3c0.4,0.2,0.6,0.6,0.8,1c0.4,0.7,0.7,1.3,1.1,2c-0.2,0.1-0.4,0.1-0.6,0.1c-0.4,0-0.8,0-1.2,0
			c-0.2,0-0.3-0.1-0.4-0.3c-0.3-0.5-0.5-0.9-0.8-1.4c-0.3-0.5-0.7-0.8-1.2-0.8c-0.4,0-0.9,0-1.3,0v2.3c0,0.1-0.1,0.2-0.2,0.2
			c-0.5,0-0.9,0-1.4,0c-0.1,0-0.2-0.1-0.2-0.2c0-0.1,0-0.2,0-0.2c0-2,0-4,0-6.1c0-0.1,0-0.2,0-0.2c0-0.1,0-0.2,0.2-0.2
			c0,0,0.1,0,0.1,0c1.3,0,2.5,0,3.8,0c0.4,0,0.8,0.1,1.2,0.3c1.4,0.6,1.6,2.4,0.3,3.3C43,33.1,43,33.2,42.9,33.3L42.9,33.3z
			 M39.4,32.3c0.7,0,1.3,0,1.9,0c0.2,0,0.3,0,0.5-0.1c0.4-0.2,0.4-0.7,0.1-1c-0.1-0.1-0.3-0.2-0.4-0.2c-0.7,0-1.4,0-2.1,0V32.3
			L39.4,32.3z"/>
		<path class="st4" d="M123.6,35.1c0.4-0.4,0.7-0.7,1.1-1.1c0,0,0.1,0,0.2,0c0.5,0.3,1,0.6,1.6,0.7c0.4,0.1,0.8,0.1,1.3,0
			c0.3,0,0.9-0.4,0.5-0.7c-0.2-0.2-0.5-0.2-0.8-0.3c-0.5-0.1-1-0.2-1.5-0.4c-0.5-0.1-0.9-0.3-1.3-0.5c-1.2-0.7-1.2-2.1-0.1-2.9
			c0.4-0.3,1-0.5,1.5-0.6c1.1-0.2,2.2-0.1,3.3,0.5c0.3,0.1,0.5,0.3,0.8,0.5c0.1,0.1,0.1,0.3,0,0.4c-0.3,0.3-0.6,0.6-1,0.9
			c-0.1,0.1-0.2,0.1-0.3,0c-0.1-0.1-0.1-0.1-0.2-0.2c-0.7-0.5-1.5-0.7-2.4-0.5c-0.1,0-0.1,0-0.2,0.1c-0.2,0.1-0.4,0.1-0.4,0.3
			c0,0.2,0.2,0.2,0.4,0.3c0.6,0.2,1.2,0.3,1.9,0.5c0.5,0.1,1,0.3,1.4,0.5c1.3,0.8,1.2,2.6-0.1,3.3c-0.4,0.2-0.7,0.3-1.1,0.3
			c-1.4,0.2-2.8,0-4-0.8c-0.1-0.1-0.3-0.2-0.4-0.3C123.6,35.2,123.6,35.1,123.6,35.1L123.6,35.1z"/>
		<path class="st4" d="M104.5,35.9c0,0.4,0,0.4-0.4,0.4c-0.4,0-0.8,0-1.2,0c-0.2,0-0.3,0-0.3-0.3c0-2.1,0-4.2,0-6.3
			c0-0.2,0.1-0.3,0.3-0.3c0.4,0,0.8,0,1.3,0c0.3,0,0.3,0,0.3,0.3C104.5,30.8,104.5,34.9,104.5,35.9L104.5,35.9z"/>
		<path class="st4" d="M84.1,31.8c-0.3-1.1-1-1.8-2.1-2.2c-0.5-0.2-1-0.2-1.5-0.2c0,0,0,0,0,0c0,0,0,0-0.1,0c0,0-0.1,0-0.1,0
			c0,0,0,0,0,0c-0.4,0-0.8,0.1-1.2,0.2c-1.1,0.4-1.8,1.1-2.1,2.2c-0.2,0.7-0.2,1.4-0.1,2.1c0.3,1.2,1,2,2.1,2.3
			c0.5,0.2,1,0.2,1.5,0.2c0,0,0,0,0,0v0c0,0,0,0,0,0c0.5,0,1-0.1,1.5-0.2c1.1-0.4,1.9-1.2,2.1-2.3C84.3,33.1,84.3,32.4,84.1,31.8
			L84.1,31.8z M82.2,33.7c-0.1,0.4-0.4,0.7-0.8,0.9c-0.3,0.1-0.7,0.2-1,0.2c0,0,0,0,0,0c0,0-0.1,0-0.1,0c-0.2,0-0.5-0.1-0.7-0.2
			c-0.4-0.2-0.7-0.5-0.8-0.9c-0.2-0.5-0.2-1,0-1.6c0.2-0.6,0.5-1,1.1-1.1c0.2-0.1,0.4-0.1,0.6-0.1c0.2,0,0.4,0,0.7,0.1
			c0.6,0.2,1,0.5,1.1,1.1C82.4,32.7,82.4,33.2,82.2,33.7L82.2,33.7z"/>
		<path class="st4" d="M57.8,31.8c-0.3-1.1-1-1.8-2.1-2.2c-0.5-0.2-1-0.2-1.5-0.2c0,0,0,0,0,0c0,0,0,0-0.1,0c0,0-0.1,0-0.1,0
			c0,0,0,0,0,0c-0.4,0-0.8,0.1-1.2,0.2c-1.1,0.4-1.8,1.1-2.1,2.2c-0.2,0.7-0.2,1.4-0.1,2.1c0.3,1.2,1,2,2.1,2.3
			c0.5,0.2,1,0.2,1.5,0.2c0,0,0,0,0,0v0c0,0,0,0,0,0c0.5,0,1-0.1,1.5-0.2c1.1-0.4,1.9-1.2,2.1-2.3C58,33.1,58,32.4,57.8,31.8
			L57.8,31.8z M55.9,33.7c-0.1,0.4-0.4,0.7-0.8,0.9c-0.3,0.1-0.7,0.2-1,0.2c0,0,0,0,0,0c0,0-0.1,0-0.1,0c-0.2,0-0.5-0.1-0.7-0.2
			c-0.4-0.2-0.7-0.5-0.8-0.9c-0.2-0.5-0.2-1,0-1.6c0.2-0.6,0.5-1,1.1-1.1C53.8,31,54,31,54.2,31c0.2,0,0.4,0,0.7,0.1
			c0.6,0.2,1,0.5,1.1,1.1C56.1,32.7,56.1,33.2,55.9,33.7L55.9,33.7z"/>
		<path class="st4" d="M94.2,31.1c0,0.2,0,3.4,0,4.9c0,0.3,0,0.3-0.3,0.4c-0.4,0-0.8,0-1.2,0c-0.3,0-0.3,0-0.3-0.3c0-0.6,0-3.9,0-5
			c-0.2,0-1.5,0-2.1,0c-0.2,0-0.3-0.1-0.3-0.3c0-0.4,0-0.7,0-1.1c0-0.2,0.1-0.2,0.2-0.2c0.1,0,6.1,0,6.3,0c0.1,0,0.2,0.1,0.2,0.2
			c0,0.4,0,0.8,0,1.3c0,0.2-0.1,0.2-0.3,0.2C95.8,31.1,94.4,31.1,94.2,31.1L94.2,31.1z"/>
		<path class="st4" d="M117.6,34.9c-0.3-0.3-0.6-0.6-0.9-0.9c-0.1-0.1-0.2-0.1-0.3,0c-0.7,0.7-1.5,0.9-2.4,0.7
			c-0.7-0.2-1.1-0.6-1.3-1.3c0-0.2-0.1-0.3-0.1-0.5c0-0.2,0-0.3,0.1-0.5c0.1-0.7,0.6-1.2,1.3-1.3c0.9-0.2,1.7-0.1,2.4,0.7
			c0.1,0.1,0.2,0.1,0.3,0c0.3-0.3,0.6-0.6,0.9-0.9c0.1-0.1,0.1-0.2,0-0.4c-0.4-0.4-0.9-0.7-1.5-0.9c-1.1-0.3-2.1-0.3-3.2,0.1
			c-1.1,0.4-1.7,1.1-2,2.2c-0.1,0.2-0.1,0.4-0.1,0.6c0,0,0,0,0,0c0,0,0,0,0,0.1c0,0.1,0,0.2,0,0.3c0,0,0,0,0,0c0,0,0,0,0,0
			c0,0,0,0,0,0s0,0,0,0c0,0.1,0,0.2,0,0.3c0,0,0,0,0,0.1c0,0,0,0,0,0c0,0.2,0.1,0.4,0.1,0.6c0.3,1.1,1,1.8,2,2.2
			c1,0.4,2.1,0.4,3.2,0.1c0.6-0.2,1.1-0.5,1.5-0.9C117.7,35.2,117.8,35.1,117.6,34.9L117.6,34.9z"/>
	</g>
</g>
</svg>
